<mxfile host="app.diagrams.net" modified="2022-03-28T15:24:04.232Z" agent="5.0 (Windows NT 10.0; Win64; x64) AppleWebKit/537.36 (KHTML, like Gecko) Chrome/99.0.4844.84 Safari/537.36" etag="mx_2Og1CBeh0X_psJDaF" version="17.2.4" type="github">
  <diagram id="eaCFjg7BmeMbXCxSYOaL" name="第 1 页">
    <mxGraphModel dx="1422" dy="762" grid="1" gridSize="10" guides="1" tooltips="1" connect="1" arrows="1" fold="1" page="1" pageScale="1" pageWidth="3300" pageHeight="2339" math="0" shadow="0">
      <root>
        <mxCell id="0" />
        <mxCell id="1" parent="0" />
        <mxCell id="rt1KR4czZhUFX1XvC9Yj-83" value="MicroService Platform（PAAS）" style="swimlane;rounded=0;glass=0;labelBorderColor=none;fontFamily=Comic Sans MS;" vertex="1" parent="1">
          <mxGeometry x="77" y="90" width="990" height="640" as="geometry" />
        </mxCell>
        <mxCell id="rt1KR4czZhUFX1XvC9Yj-84" value="Gateway（SC Gateway）" style="shape=ext;double=1;rounded=1;whiteSpace=wrap;html=1;glass=0;labelBorderColor=none;fontFamily=Comic Sans MS;" vertex="1" parent="rt1KR4czZhUFX1XvC9Yj-83">
          <mxGeometry x="575" y="175" width="310" height="60" as="geometry" />
        </mxCell>
        <mxCell id="rt1KR4czZhUFX1XvC9Yj-85" value="User Center Service" style="shape=ext;double=1;rounded=1;whiteSpace=wrap;html=1;glass=0;labelBorderColor=none;fontFamily=Comic Sans MS;" vertex="1" parent="rt1KR4czZhUFX1XvC9Yj-83">
          <mxGeometry x="775" y="271" width="110" height="50" as="geometry" />
        </mxCell>
        <mxCell id="rt1KR4czZhUFX1XvC9Yj-92" value="" style="edgeStyle=orthogonalEdgeStyle;rounded=0;sketch=0;orthogonalLoop=1;jettySize=auto;html=1;labelBorderColor=none;fontFamily=Comic Sans MS;" edge="1" parent="rt1KR4czZhUFX1XvC9Yj-83" source="rt1KR4czZhUFX1XvC9Yj-89" target="rt1KR4czZhUFX1XvC9Yj-91">
          <mxGeometry relative="1" as="geometry" />
        </mxCell>
        <mxCell id="rt1KR4czZhUFX1XvC9Yj-89" value="Distribution Database （SHarding JDBC）" style="shape=ext;double=1;rounded=1;whiteSpace=wrap;html=1;glass=0;labelBorderColor=none;fontFamily=Comic Sans MS;" vertex="1" parent="rt1KR4czZhUFX1XvC9Yj-83">
          <mxGeometry x="576" y="355" width="310" height="50" as="geometry" />
        </mxCell>
        <mxCell id="rt1KR4czZhUFX1XvC9Yj-91" value="Mysql Database Master/Slave Cluster" style="shape=ext;double=1;rounded=1;whiteSpace=wrap;html=1;glass=0;labelBorderColor=none;fontFamily=Comic Sans MS;" vertex="1" parent="rt1KR4czZhUFX1XvC9Yj-83">
          <mxGeometry x="576" y="435" width="310" height="50" as="geometry" />
        </mxCell>
        <mxCell id="rt1KR4czZhUFX1XvC9Yj-111" value="Business Services" style="shape=ext;double=1;rounded=1;whiteSpace=wrap;html=1;glass=0;labelBorderColor=none;fontFamily=Comic Sans MS;" vertex="1" parent="rt1KR4czZhUFX1XvC9Yj-83">
          <mxGeometry x="577" y="271" width="180" height="50" as="geometry" />
        </mxCell>
        <mxCell id="rt1KR4czZhUFX1XvC9Yj-136" value="Service Discvory and Distribution Configuration" style="swimlane;rounded=0;glass=0;labelBorderColor=none;fontFamily=Comic Sans MS;" vertex="1" parent="rt1KR4czZhUFX1XvC9Yj-83">
          <mxGeometry x="33" y="80" width="477" height="260" as="geometry">
            <mxRectangle x="33" y="80" width="310" height="23" as="alternateBounds" />
          </mxGeometry>
        </mxCell>
        <mxCell id="rt1KR4czZhUFX1XvC9Yj-114" value="Service Resiger&lt;br&gt;（Nacos）" style="shape=ext;double=1;rounded=1;whiteSpace=wrap;html=1;glass=0;labelBorderColor=none;fontFamily=Comic Sans MS;" vertex="1" parent="rt1KR4czZhUFX1XvC9Yj-136">
          <mxGeometry x="260" y="50" width="170" height="60" as="geometry" />
        </mxCell>
        <mxCell id="rt1KR4czZhUFX1XvC9Yj-115" value="Config Center&lt;br&gt;（Nacos）" style="shape=ext;double=1;rounded=1;whiteSpace=wrap;html=1;glass=0;labelBorderColor=none;fontFamily=Comic Sans MS;" vertex="1" parent="rt1KR4czZhUFX1XvC9Yj-136">
          <mxGeometry x="260" y="150" width="170" height="60" as="geometry" />
        </mxCell>
        <mxCell id="rt1KR4czZhUFX1XvC9Yj-118" value="Strategy Loadbalancer&lt;br&gt;（SC Loadbalancer）" style="shape=ext;double=1;rounded=1;whiteSpace=wrap;html=1;glass=0;labelBorderColor=none;fontFamily=Comic Sans MS;" vertex="1" parent="rt1KR4czZhUFX1XvC9Yj-136">
          <mxGeometry x="50" y="50" width="170" height="60" as="geometry" />
        </mxCell>
        <mxCell id="rt1KR4czZhUFX1XvC9Yj-138" value="APM And Distribution Log" style="swimlane;rounded=0;glass=0;labelBorderColor=none;fontFamily=Comic Sans MS;" vertex="1" parent="rt1KR4czZhUFX1XvC9Yj-83">
          <mxGeometry x="33" y="380" width="477" height="130" as="geometry">
            <mxRectangle x="33" y="380" width="180" height="23" as="alternateBounds" />
          </mxGeometry>
        </mxCell>
        <mxCell id="rt1KR4czZhUFX1XvC9Yj-121" value="APM Monitor&lt;br&gt;（SkyWalking）" style="shape=ext;double=1;rounded=1;whiteSpace=wrap;html=1;glass=0;labelBorderColor=none;fontFamily=Comic Sans MS;" vertex="1" parent="rt1KR4czZhUFX1XvC9Yj-138">
          <mxGeometry x="50" y="45" width="170" height="60" as="geometry" />
        </mxCell>
        <mxCell id="rt1KR4czZhUFX1XvC9Yj-120" value="Distribution Log System&lt;br&gt;（ELK）" style="shape=ext;double=1;rounded=1;whiteSpace=wrap;html=1;glass=0;labelBorderColor=none;fontFamily=Comic Sans MS;" vertex="1" parent="rt1KR4czZhUFX1XvC9Yj-138">
          <mxGeometry x="260" y="45" width="170" height="60" as="geometry" />
        </mxCell>
        <mxCell id="rt1KR4czZhUFX1XvC9Yj-116" value="Service&amp;nbsp;Limitation &amp;amp; baffle&lt;br&gt;（Sentinel）" style="shape=ext;double=1;rounded=1;whiteSpace=wrap;html=1;glass=0;labelBorderColor=none;fontFamily=Comic Sans MS;" vertex="1" parent="1">
          <mxGeometry x="1308" y="423" width="170" height="60" as="geometry" />
        </mxCell>
        <mxCell id="rt1KR4czZhUFX1XvC9Yj-117" value="Distribution Transaction（Seata）" style="shape=ext;double=1;rounded=1;whiteSpace=wrap;html=1;glass=0;labelBorderColor=none;fontFamily=Comic Sans MS;" vertex="1" parent="1">
          <mxGeometry x="1308" y="499" width="170" height="60" as="geometry" />
        </mxCell>
        <mxCell id="rt1KR4czZhUFX1XvC9Yj-119" value="Service RPC Client&lt;br&gt;（Dubbo）" style="shape=ext;double=1;rounded=1;whiteSpace=wrap;html=1;glass=0;labelBorderColor=none;fontFamily=Comic Sans MS;" vertex="1" parent="1">
          <mxGeometry x="1109" y="349" width="170" height="60" as="geometry" />
        </mxCell>
      </root>
    </mxGraphModel>
  </diagram>
</mxfile>
